<svg xmlns="http://www.w3.org/2000/svg" xmlns:xlink="http://www.w3.org/1999/xlink" aria-hidden="true" role="img" class="iconify iconify--logos" width="31.88" height="32" preserveAspectRatio="xMidYMid meet" viewBox="0 0 256 257"><defs><linearGradient id="IconifyId1813088fe1fbc01fb466" x1="-.828%" x2="57.636%" y1="7.652%" y2="78.411%"><stop offset="0%" stop-color="#41D1FF"></stop><stop offset="100%" stop-color="#BD34FE"></stop></linearGradient><linearGradient id="IconifyId1813088fe1fbc01fb467" x1="43.376%" x2="50.316%" y1="2.242%" y2="89.03%"><stop offset="0%" stop-color="#FFEA83"></stop><stop offset="8.333%" stop-color="#FFDD35"></stop><stop offset="100%" stop-color="#FFA800"></stop></linearGradient></defs><path fill="url(#IconifyId1813088fe1fbc01fb466)" d="M255.153 37.938L134.897 252.976c-2.483 4.44-8.862 4.466-11.382.048L.875 37.958c-2.746-4.814 1.371-10.646 6.827-9.67l120.385 21.517a6.537 6.537 0 0 0 2.322-.004l117.867-21.483c5.438-.991 9.574 4.796 6.877 9.62Z"></path><path fill="url(#IconifyId1813088fe1fbc01fb467)" d="M185.432.063L96.44 17.501a3.268 3.268 0 0 0-2.634 3.014l-5.474 92.456a3.268 3.268 0 0 0 3.997 3.378l24.777-5.718c2.318-.535 4.413 1.507 3.936 3.838l-7.361 36.047c-.495 2.426 1.782 4.5 4.151 3.78l15.304-4.649c2.372-.72 4.652 1.36 4.15 3.788l-11.698 56.621c-.732 3.542 3.979 5.473 5.943 2.437l1.313-2.028l72.516-144.72c1.215-2.423-.88-5.186-3.54-4.672l-25.505 4.922c-2.396.462-4.435-1.77-3.759-4.114l16.646-57.705c.677-2.35-1.37-4.583-3.769-4.113Z"></path></svg>
<svg xmlns="http://www.w3.org/2000/svg" width="25" height="24" viewBox="0 0 25 24" fill="none">
  <path d="M24.5 12.2659C24.5 11.2821 24.4183 10.5641 24.2415 9.81961H12.7449V14.2602H19.4931C19.3571 15.3637 18.6225 17.0256 16.9898 18.1424L16.9669 18.291L20.6019 21.0428L20.8537 21.0674C23.1666 18.98 24.5 15.9088 24.5 12.2659Z" fill="#4285F4"/>
  <path d="M12.7449 23.9657C16.051 23.9657 18.8265 22.9021 20.8537 21.0674L16.9898 18.1424C15.9558 18.847 14.568 19.3389 12.7449 19.3389C9.50682 19.3389 6.75854 17.2516 5.77886 14.3666L5.63526 14.3785L1.85552 17.237L1.80609 17.3713C3.81968 21.28 7.95574 23.9657 12.7449 23.9657Z" fill="#34A853"/>
  <path d="M5.77886 14.3666C5.52036 13.6221 5.37076 12.8243 5.37076 12C5.37076 11.1757 5.52036 10.378 5.76526 9.63346L5.75841 9.47489L1.93131 6.57049L1.80609 6.62869C0.976196 8.25073 0.5 10.0722 0.5 12C0.5 13.9278 0.976196 15.7492 1.80609 17.3713L5.77886 14.3666Z" fill="#FBBC05"/>
  <path d="M12.7449 4.66101C15.0442 4.66101 16.5952 5.63156 17.4796 6.44263L20.9353 3.14539C18.8129 1.21758 16.051 0.0343018 12.7449 0.0343018C7.95574 0.0343018 3.81968 2.71992 1.80609 6.62869L5.76526 9.63346C6.75855 6.74839 9.50682 4.66101 12.7449 4.66101Z" fill="#EB4335"/>
</svg>